<svg width="20" height="20" viewBox="0 0 20 20" fill="none" xmlns="http://www.w3.org/2000/svg">
<path d="M9.99995 9.16641C9.53979 9.16641 9.16635 9.53985 9.16635 10V13.3336C9.16635 13.7938 9.53979 14.1664 9.99995 14.1664C10.4601 14.1664 10.8336 13.7938 10.8336 13.3336V10C10.8336 9.77891 10.7453 9.56719 10.589 9.41095C10.4328 9.25471 10.2211 9.16641 9.99995 9.16641Z" fill="#0084F4"/>
<path d="M10.8336 7.50001C10.8336 8.61095 9.16644 8.61095 9.16644 7.50001C9.16644 6.38907 10.8336 6.38907 10.8336 7.50001Z" fill="#0084F4"/>
<path d="M9.99995 1.66641C7.78975 1.66641 5.67035 2.54453 4.10775 4.10781C2.54447 5.67031 1.66635 7.78981 1.66635 10C1.66635 12.2102 2.54447 14.3296 4.10775 15.8922C5.67025 17.4555 7.78975 18.3336 9.99995 18.3336C12.2102 18.3336 14.3295 17.4555 15.8921 15.8922C17.4554 14.3297 18.3335 12.2102 18.3335 10C18.3335 7.78981 17.4554 5.67041 15.8921 4.10781C14.3296 2.54453 12.2102 1.66641 9.99995 1.66641ZM9.99995 16.6664C8.23199 16.6664 6.53595 15.9641 5.28595 14.7141C4.03595 13.4641 3.33361 11.7681 3.33361 10.0001C3.33361 8.23207 4.03595 6.53607 5.28595 5.28607C6.53595 4.03607 8.23195 3.33373 9.99995 3.33373C11.768 3.33373 13.464 4.03607 14.714 5.28607C15.964 6.53607 16.6663 8.23207 16.6663 10.0001C16.6663 11.7681 15.964 13.4641 14.714 14.7141C13.464 15.9641 11.768 16.6664 9.99995 16.6664Z" fill="#0084F4"/>
</svg>
