<svg width="50" height="50" viewBox="0 0 50 50" fill="none" xmlns="http://www.w3.org/2000/svg">
<path d="M25.0001 50C38.8072 50 50.0001 38.8071 50.0001 25C50.0001 11.1929 38.8072 0 25.0001 0C11.1929 0 0 11.1929 0 25C0 38.8071 11.1929 50 25.0001 50Z" fill="white"/>
<path d="M15.7425 16.2185C15.7066 16.0485 15.6483 15.8168 15.5975 15.6701C15.585 15.6218 15.5708 15.5743 15.555 15.5285C15.2833 14.7351 14.54 14.166 13.6658 14.166C12.7308 14.166 11.9458 14.8168 11.7275 15.6968C11.6875 15.8551 11.6666 16.0218 11.6666 16.1935C11.6666 16.5376 11.8558 17.1026 11.8683 17.146L12.2508 18.581L12.7625 20.6935C13.1216 22.1743 13.48 23.6568 13.8383 25.1385L13.8391 25.1401C14.4916 27.8393 15.145 30.5393 15.8033 33.2376C16.1025 34.4635 16.5558 35.5693 18.0091 35.796C19.4933 36.0268 20.2908 35.1385 20.9692 34.0035L21.0842 33.811C21.705 32.7718 22.3267 31.7301 23.0158 30.7385C24.3008 28.886 25.4767 29.331 26.7467 31.2126C27.1717 31.8435 27.5642 32.4968 27.9567 33.1501C28.2642 33.661 28.5708 34.1718 28.8933 34.6718C29.4892 35.5943 30.3708 35.9476 31.4442 35.796C32.5092 35.6451 33.1667 34.9751 33.4184 33.9751L33.6217 33.1651C34.9767 27.7676 36.3284 21.9368 37.6042 16.5193C37.9709 14.9626 36.6717 13.8701 35.135 14.2893C34.6834 14.4126 34.2458 14.5935 33.81 14.7735L33.8075 14.7743C33.7042 14.8176 33.6 14.8601 33.4967 14.9018C32.685 15.2301 31.8775 15.5726 31.07 15.9151L31.0692 15.916C29.255 16.6851 27.4408 17.4543 25.5767 18.066C23.5908 18.7168 21.4842 19.126 19.4025 19.3035C17.2941 19.4835 16.365 18.5793 15.815 16.5318C15.7875 16.431 15.765 16.3251 15.7425 16.2185Z" fill="#5C2799"/>
</svg>
